<svg width="34" height="34" viewBox="0 0 34 34" fill="none" xmlns="http://www.w3.org/2000/svg">
<line x1="0.5" y1="2.18557e-08" x2="0.499999" y2="34" stroke="#F1F1F1"/>
<g clip-path="url(#clip0_64_9338)">
<mask id="mask0_64_9338" style="mask-type:alpha" maskUnits="userSpaceOnUse" x="10" y="5" width="24" height="24">
<rect x="10.5" y="5.5" width="23" height="23" fill="#D9D9D9" stroke="black"/>
</mask>
<g mask="url(#mask0_64_9338)">
<path d="M22.003 25.2751C21.4272 25.2751 20.9344 25.0705 20.5248 24.6613C20.1151 24.252 19.9103 23.76 19.9103 23.1853C19.9103 22.609 20.1149 22.1157 20.5243 21.7053C20.9334 21.295 21.4254 21.0898 22 21.0898C22.5779 21.0898 23.0706 21.2948 23.4783 21.7046C23.8859 22.1146 24.0898 22.6073 24.0898 23.1828C24.0898 23.7585 23.8859 24.2511 23.4783 24.6606C23.0706 25.0703 22.5789 25.2751 22.003 25.2751ZM22.003 19.0898C21.4272 19.0898 20.9344 18.8852 20.5248 18.4758C20.1151 18.0667 19.9103 17.5748 19.9103 17.0001C19.9103 16.4223 20.1149 15.9295 20.5243 15.5218C20.9334 15.1142 21.4254 14.9103 22 14.9103C22.5779 14.9103 23.0706 15.1142 23.4783 15.5218C23.8859 15.9295 24.0898 16.4213 24.0898 16.9971C24.0898 17.5729 23.8859 18.0657 23.4783 18.4753C23.0706 18.885 22.5789 19.0898 22.003 19.0898ZM22.003 12.9103C21.4272 12.9103 20.9344 12.705 20.5248 12.2943C20.1151 11.8837 19.9103 11.3899 19.9103 10.8131C19.9103 10.2363 20.1149 9.7441 20.5243 9.3366C20.9334 8.92893 21.4254 8.7251 22 8.7251C22.5779 8.7251 23.0706 8.92893 23.4783 9.3366C23.8859 9.7441 24.0898 10.2363 24.0898 10.8131C24.0898 11.3899 23.8859 11.8837 23.4783 12.2943C23.0706 12.705 22.5789 12.9103 22.003 12.9103Z" fill="#2D446E"/>
</g>
</g>
<defs>
<clipPath id="clip0_64_9338">
<rect width="24" height="24" fill="white" transform="translate(10 5)"/>
</clipPath>
</defs>
</svg>
